{"title":"Barkhaa (2015) S-Cam Rip - XviD - [1CD] - IcTv LotterY Exclusive","uid":11811813,"size":728708516,"categoryP":"video","categoryS":"other","magnet":"?xt=urn:btih:add621b8839398df312fd2a80aebc86d7187981b&amp;dn=Barkhaa+%282015%29+S-Cam+Rip+-+XviD+-+%5B1CD%5D+-+IcTv+LotterY+Exclusive&amp;tr=udp%3A%2F%2Ftracker.openbittorrent.com%3A80&amp;tr=udp%3A%2F%2Fopen.demonii.com%3A1337&amp;tr=udp%3A%2F%2Ftracker.coppersurfer.tk%3A6969&amp;tr=udp%3A%2F%2Fexodus.desync.com%3A6969","seeders":11,"leechers":1,"uploader":"SS132203","files":3,"time":1428851184,"description":"Barkhaa (2015) S-Cam Rip - XviD - [1CD] - IcTv LotterY Exclusive -={SPARROW}=-\n &lt;a href=&quot;\nhttp://data1.ibtimes.co.in/photo/en/full/2761/Barkhaa-First-Look-Poster.jpg&quot; rel=&quot;nofollow&quot; target=&quot;_NEW&quot;&gt;\nhttp://data1.ibtimes.co.in/photo/en/full/2761/Barkhaa-First-Look-Poster.jpg&lt;/a&gt;\n &lt;a href=&quot;\nhttp://img9.imageshack.us/img9/9743/infonewr.png&quot; rel=&quot;nofollow&quot; target=&quot;_NEW&quot;&gt;\nhttp://img9.imageshack.us/img9/9743/infonewr.png&lt;/a&gt;\n\nMovie Info\nBanner : Zahara Productions\nYear : 2015\nCast : Sara Loren - Taaha Shah - Priyanshu Chatterjee\nVideo: XviD\nAudio : MP3\nGenre : Drama\nSubtitles : None\nResolution : 640 x 272\nRuntime : 2hr 45min\nSource : Team IcTv\n\nFormat                      : AVI\nFormat/Info                 : Audio Video Interleave\nFile size                   : 695 MiB\nDuration                    : 1h 45mn\nOverall bit rate            : 918 Kbps\n\nVideo\nID                          : 0\nFormat                      : MPEG-4 Visual\nFormat profile              : Advanced Simple@L5\nFormat settings, BVOP       : 2\nFormat settings, QPel       : No\nFormat settings, GMC        : No warppoints\nFormat settings, Matrix     : Default (H.263)\nCodec ID                    : XVID\nCodec ID/Hint               : XviD\nDuration                    : 1h 45mn\nBit rate                    : 784 Kbps\nWidth                       : 640 pixels\nHeight                      : 272 pixels\nDisplay aspect ratio        : 2.35:1\nFrame rate                  : 25.000 fps\nColor space                 : YUV\nChroma subsampling          : 4:2:0\nBit depth                   : 8 bits\nScan type                   : Progressive\nCompression mode            : Lossy\nBits/(Pixel*Frame)          : 0.180\nStream size                 : 593 MiB (85%)\nWriting library             : XviD 1.2.1 (UTC 2008-12-04)\n\nAudio\nID                          : 1\nFormat                      : MPEG Audio\nFormat version              : Version 1\nFormat profile              : Layer 3\nMode                        : Joint stereo\nMode extension              : MS Stereo\nCodec ID                    : 55\nCodec ID/Hint               : MP3\nDuration                    : 1h 45mn\nBit rate mode               : Constant\nBit rate                    : 128 Kbps\nChannel(s)                  : 2 channels\nSampling rate               : 48.0 KHz\nCompression mode            : Lossy\nStream size                 : 96.9 MiB (14%)\n &lt;a href=&quot;\nhttp://img193.imageshack.us/img193/3562/screensnewred.png&quot; rel=&quot;nofollow&quot; target=&quot;_NEW&quot;&gt;\nhttp://img193.imageshack.us/img193/3562/screensnewred.png&lt;/a&gt;\n &lt;a href=&quot;\nhttp://imgsparrow.co/image/8v&quot; rel=&quot;nofollow&quot; target=&quot;_NEW&quot;&gt;\nhttp://imgsparrow.co/image/8v&lt;/a&gt; &lt;a href=&quot;\nhttp://imgsparrow.co/image/8x&quot; rel=&quot;nofollow&quot; target=&quot;_NEW&quot;&gt;\nhttp://imgsparrow.co/image/8x&lt;/a&gt; &lt;a href=&quot;\nhttp://imgsparrow.co/image/8C&quot; rel=&quot;nofollow&quot; target=&quot;_NEW&quot;&gt;\nhttp://imgsparrow.co/image/8C&lt;/a&gt; &lt;a href=&quot;\nhttp://imgsparrow.co/image/81&quot; rel=&quot;nofollow&quot; target=&quot;_NEW&quot;&gt;\nhttp://imgsparrow.co/image/81&lt;/a&gt; &lt;a href=&quot;\nhttp://imgsparrow.co/image/96&quot; rel=&quot;nofollow&quot; target=&quot;_NEW&quot;&gt;\nhttp://imgsparrow.co/image/96&lt;/a&gt; &lt;a href=&quot;\nhttp://imgsparrow.co/image/98&quot; rel=&quot;nofollow&quot; target=&quot;_NEW&quot;&gt;\nhttp://imgsparrow.co/image/98&lt;/a&gt; &lt;a href=&quot;\nhttp://imgsparrow.co/image/99&quot; rel=&quot;nofollow&quot; target=&quot;_NEW&quot;&gt;\nhttp://imgsparrow.co/image/99&lt;/a&gt; &lt;a href=&quot;\nhttp://imgsparrow.co/image/9L&quot; rel=&quot;nofollow&quot; target=&quot;_NEW&quot;&gt;\nhttp://imgsparrow.co/image/9L&lt;/a&gt;\n\nAll Credit Goes To Intellect Clever &amp; IcTv\n &lt;a href=&quot;\nhttp://imgsparrow.org/images/2015/02/22/SPARROW.gif&quot; rel=&quot;nofollow&quot; target=&quot;_NEW&quot;&gt;\nhttp://imgsparrow.org/images/2015/02/22/SPARROW.gif&lt;/a&gt;","torrent":{"xt":"urn:btih:add621b8839398df312fd2a80aebc86d7187981b","amp;dn":"Barkhaa+%282015%29+S-Cam+Rip+-+XviD+-+%5B1CD%5D+-+IcTv+LotterY+Exclusive","amp;tr":["udp%3A%2F%2Ftracker.openbittorrent.com%3A80","udp%3A%2F%2Fopen.demonii.com%3A1337","udp%3A%2F%2Ftracker.coppersurfer.tk%3A6969","udp%3A%2F%2Fexodus.desync.com%3A6969"],"infoHash":"add621b8839398df312fd2a80aebc86d7187981b","infoHashBuffer":{"type":"Buffer","data":[173,214,33,184,131,147,152,223,49,47,210,168,10,235,200,109,113,135,152,27]},"announce":[],"urlList":[]}}